
<svg width="51" height="50" viewBox="0 0 51 50" fill="none" xmlns="http://www.w3.org/2000/svg">
<rect opacity="0.08" x="0.5" width="50" height="50" rx="25" fill="#FE6226"/>
<path d="M24.3671 18.6929C24.4508 18.6922 24.4508 18.6922 24.5361 18.6916C24.6265 18.692 24.6265 18.692 24.7188 18.6924C24.7812 18.6923 24.8437 18.6922 24.9061 18.692C25.0369 18.6918 25.1677 18.6921 25.2985 18.6928C25.4662 18.6936 25.6338 18.6931 25.8015 18.6923C25.9304 18.6917 26.0593 18.6919 26.1882 18.6923C26.2801 18.6924 26.372 18.692 26.4639 18.6916C26.5196 18.692 26.5754 18.6924 26.6329 18.6929C26.7066 18.6931 26.7066 18.6931 26.7819 18.6932C26.9044 18.7113 26.9044 18.7113 26.9906 18.7742C27.0789 18.9028 27.0605 19.0238 27.0586 19.1776C27.0584 19.2089 27.0582 19.2402 27.058 19.2725C27.0572 19.3723 27.0555 19.4721 27.0537 19.5719C27.053 19.6396 27.0523 19.7073 27.0517 19.7751C27.0502 19.941 27.0478 20.1069 27.0449 20.2728C27.08 20.2792 27.1151 20.2856 27.1513 20.2921C27.353 20.3363 27.5382 20.4258 27.7265 20.5095C27.8952 20.5811 27.9958 20.6237 28.1684 20.5567C28.2481 20.4941 28.2481 20.4941 28.3202 20.4138C28.3479 20.3849 28.3756 20.356 28.4042 20.3263C28.4326 20.2959 28.461 20.2656 28.4903 20.2343C28.8803 19.8202 28.8803 19.8202 29.1047 19.7049C29.3225 19.7187 29.4309 19.7683 29.5844 19.9225C29.6208 19.9586 29.6571 19.9946 29.6946 20.0317C29.733 20.0709 29.7713 20.1102 29.8108 20.1506C29.8508 20.1908 29.8908 20.231 29.9321 20.2725C30.0164 20.3576 30.1005 20.443 30.1843 20.5287C30.3127 20.6597 30.4423 20.7894 30.572 20.919C30.6539 21.0019 30.7356 21.0849 30.8173 21.1679C30.8561 21.2067 30.895 21.2454 30.9349 21.2853C30.9706 21.3221 31.0062 21.3589 31.043 21.3968C31.0744 21.4288 31.1059 21.4608 31.1384 21.4938C31.2296 21.6235 31.2467 21.724 31.2582 21.8816C31.2109 21.9825 31.2109 21.9825 31.1324 22.0767C31.1028 22.1127 31.0732 22.1487 31.0426 22.1858C30.9576 22.278 30.8719 22.3657 30.7819 22.4527C30.7434 22.4901 30.7434 22.4901 30.7042 22.5283C30.6528 22.5777 30.6007 22.6263 30.5478 22.6741C30.4655 22.7494 30.4655 22.7494 30.3687 22.8752C30.3599 22.9927 30.3599 22.9927 30.4156 23.1118C30.4373 23.169 30.4591 23.2262 30.4816 23.2852C30.5203 23.3798 30.5595 23.4741 30.5989 23.5684C30.6559 23.7078 30.6965 23.811 30.6965 23.9635C30.7383 23.9628 30.7801 23.962 30.8231 23.9613C30.9784 23.9589 31.1336 23.9571 31.2888 23.9557C31.3559 23.955 31.4231 23.9541 31.4903 23.9528C31.5868 23.9511 31.6834 23.9503 31.78 23.9497C31.8381 23.9489 31.8962 23.9482 31.956 23.9474C32.1009 23.9635 32.1009 23.9635 32.179 24.0184C32.2668 24.1411 32.2592 24.2293 32.2595 24.38C32.26 24.4363 32.2604 24.4927 32.2609 24.5508C32.2604 24.6422 32.2604 24.6422 32.26 24.7354C32.2601 24.7985 32.2602 24.8616 32.2604 24.9247C32.2606 25.0569 32.2603 25.1892 32.2597 25.3214C32.2589 25.4908 32.2593 25.6603 32.2602 25.8297C32.2607 25.96 32.2605 26.0903 32.2601 26.2206C32.26 26.3135 32.2604 26.4064 32.2609 26.4992C32.2604 26.5556 32.26 26.612 32.2595 26.6701C32.2594 26.7198 32.2593 26.7694 32.2592 26.8206C32.2413 26.9445 32.2413 26.9445 32.179 27.0317C32.0519 27.1209 31.9321 27.1023 31.78 27.1004C31.749 27.1002 31.718 27.1 31.6861 27.0998C31.5873 27.099 31.4886 27.0972 31.3899 27.0954C31.3229 27.0947 31.2559 27.094 31.1888 27.0934C31.0247 27.0919 30.8606 27.0894 30.6965 27.0865C30.6901 27.122 30.6838 27.1575 30.6773 27.1941C30.6336 27.398 30.545 27.5851 30.4622 27.7755C30.3914 27.9459 30.3492 28.0476 30.4156 28.2221C30.4775 28.3026 30.4775 28.3026 30.5569 28.3755C30.5855 28.4035 30.6141 28.4315 30.6435 28.4604C30.6735 28.4891 30.7036 28.5178 30.7345 28.5474C31.1442 28.9416 31.1442 28.9416 31.2582 29.1685C31.2446 29.3885 31.1956 29.4981 31.043 29.6533C31.0073 29.69 30.9717 29.7268 30.9349 29.7647C30.8961 29.8034 30.8573 29.8422 30.8173 29.8821C30.7775 29.9226 30.7377 29.963 30.6967 30.0047C30.6125 30.09 30.528 30.1749 30.4433 30.2596C30.3136 30.3894 30.1853 30.5204 30.057 30.6515C29.975 30.7342 29.893 30.8169 29.8108 30.8994C29.7725 30.9387 29.7341 30.9779 29.6946 31.0183C29.6582 31.0544 29.6219 31.0904 29.5844 31.1275C29.5527 31.1593 29.521 31.1911 29.4884 31.2239C29.3601 31.3161 29.2606 31.3334 29.1047 31.3451C29.0049 31.2972 29.0049 31.2972 28.9116 31.2179C28.876 31.188 28.8404 31.158 28.8037 31.1272C28.7125 31.0412 28.6257 30.9546 28.5397 30.8636C28.5027 30.8247 28.5027 30.8247 28.4649 30.7851C28.416 30.7331 28.3679 30.6804 28.3206 30.6271C28.2461 30.5438 28.2461 30.5438 28.1216 30.446C28.0054 30.4371 28.0054 30.4371 27.8876 30.4934C27.831 30.5154 27.7743 30.5374 27.716 30.5601C27.6225 30.5992 27.5292 30.6389 27.4359 30.6787C27.2979 30.7363 27.1958 30.7773 27.0449 30.7773C27.046 30.8407 27.046 30.8407 27.0471 30.9053C27.0495 31.0622 27.0513 31.2191 27.0526 31.376C27.0533 31.4438 27.0543 31.5117 27.0555 31.5796C27.0572 31.6772 27.058 31.7748 27.0586 31.8724C27.0597 31.9605 27.0597 31.9605 27.0608 32.0504C27.0449 32.1968 27.0449 32.1968 26.9906 32.2758C26.8692 32.3645 26.7819 32.3568 26.6329 32.3571C26.5771 32.3576 26.5213 32.358 26.4639 32.3585C26.3735 32.358 26.3735 32.358 26.2812 32.3576C26.2188 32.3577 26.1563 32.3578 26.0939 32.358C25.9631 32.3582 25.8323 32.3579 25.7015 32.3573C25.5338 32.3565 25.3662 32.3569 25.1985 32.3578C25.0696 32.3583 24.9407 32.3581 24.8118 32.3578C24.7199 32.3576 24.628 32.358 24.5361 32.3585C24.4804 32.358 24.4246 32.3576 24.3671 32.3571C24.318 32.357 24.2688 32.3569 24.2181 32.3568C24.0956 32.3388 24.0956 32.3388 24.0094 32.2758C23.9211 32.1473 23.9395 32.0262 23.9414 31.8724C23.9416 31.8411 23.9418 31.8098 23.942 31.7775C23.9428 31.6777 23.9445 31.578 23.9463 31.4782C23.947 31.4104 23.9477 31.3427 23.9483 31.2749C23.9498 31.109 23.9522 30.9432 23.9551 30.7773C23.92 30.7709 23.8849 30.7645 23.8487 30.7579C23.647 30.7137 23.4618 30.6242 23.2735 30.5405C23.1048 30.4689 23.0042 30.4263 22.8316 30.4934C22.7519 30.556 22.7519 30.556 22.6798 30.6362C22.6521 30.6651 22.6244 30.694 22.5958 30.7238C22.5674 30.7541 22.539 30.7845 22.5097 30.8157C22.1197 31.2299 22.1197 31.2299 21.8953 31.3451C21.6775 31.3314 21.5691 31.2817 21.4156 31.1275C21.3792 31.0915 21.3429 31.0554 21.3054 31.0183C21.267 30.9791 21.2287 30.9399 21.1892 30.8994C21.1492 30.8592 21.1092 30.819 21.0679 30.7776C20.9836 30.6925 20.8995 30.607 20.8157 30.5214C20.6873 30.3903 20.5577 30.2606 20.428 30.131C20.3461 30.0481 20.2644 29.9652 20.1827 29.8821C20.1439 29.8434 20.105 29.8046 20.0651 29.7647C20.0294 29.7279 19.9938 29.6911 19.957 29.6533C19.9256 29.6212 19.8941 29.5892 19.8616 29.5563C19.7704 29.4266 19.7533 29.326 19.7418 29.1685C19.7891 29.0676 19.7891 29.0676 19.8676 28.9733C19.8972 28.9373 19.9268 28.9013 19.9574 28.8642C20.0424 28.772 20.1281 28.6843 20.2181 28.5973C20.2566 28.5599 20.2566 28.5599 20.2958 28.5218C20.3472 28.4724 20.3993 28.4237 20.4522 28.3759C20.5345 28.3006 20.5345 28.3006 20.6313 28.1748C20.6346 27.9455 20.4953 27.723 20.4011 27.5163C20.331 27.3576 20.3035 27.2642 20.3035 27.0865C20.2408 27.0876 20.2408 27.0876 20.1769 27.0887C20.0216 27.0912 19.8664 27.0929 19.7112 27.0943C19.6441 27.095 19.5769 27.096 19.5097 27.0972C19.4132 27.0989 19.3166 27.0997 19.22 27.1004C19.1329 27.1015 19.1329 27.1015 19.044 27.1026C18.8991 27.0865 18.8991 27.0865 18.821 27.0317C18.7332 26.9089 18.7408 26.8207 18.7405 26.6701C18.74 26.6137 18.7396 26.5573 18.7391 26.4992C18.7394 26.4383 18.7397 26.3774 18.74 26.3146C18.7399 26.2515 18.7398 26.1884 18.7396 26.1253C18.7394 25.9931 18.7397 25.8609 18.7403 25.7287C18.7411 25.5592 18.7407 25.3898 18.7398 25.2203C18.7393 25.09 18.7395 24.9597 18.7399 24.8294C18.74 24.7365 18.7396 24.6437 18.7391 24.5508C18.7396 24.4944 18.74 24.438 18.7405 24.38C18.7406 24.3303 18.7407 24.2806 18.7408 24.2294C18.7587 24.1055 18.7587 24.1055 18.821 24.0184C18.9481 23.9291 19.0679 23.9477 19.22 23.9497C19.251 23.9499 19.282 23.9501 19.3139 23.9503C19.4127 23.9511 19.5114 23.9529 19.6101 23.9547C19.6771 23.9554 19.7441 23.956 19.8112 23.9566C19.9753 23.9582 20.1394 23.9606 20.3035 23.9635C20.3099 23.928 20.3162 23.8925 20.3227 23.856C20.3664 23.6521 20.455 23.4649 20.5378 23.2746C20.6086 23.1041 20.6508 23.0024 20.5844 22.8279C20.5225 22.7474 20.5225 22.7474 20.4431 22.6745C20.4145 22.6465 20.3859 22.6185 20.3565 22.5897C20.3265 22.5609 20.2964 22.5322 20.2655 22.5026C19.8558 22.1084 19.8558 22.1084 19.7418 21.8816C19.7554 21.6615 19.8044 21.5519 19.957 21.3968C19.9927 21.36 20.0283 21.3232 20.0651 21.2853C20.1039 21.2466 20.1427 21.2078 20.1827 21.1679C20.2225 21.1275 20.2623 21.087 20.3033 21.0453C20.3875 20.9601 20.472 20.8751 20.5567 20.7904C20.6864 20.6606 20.8147 20.5297 20.943 20.3985C21.025 20.3158 21.107 20.2332 21.1892 20.1506C21.2275 20.1113 21.2659 20.0721 21.3054 20.0317C21.3418 19.9957 21.3781 19.9596 21.4156 19.9225C21.4473 19.8907 21.479 19.8589 21.5116 19.8261C21.6399 19.7339 21.7394 19.7166 21.8953 19.7049C21.9951 19.7528 21.9951 19.7528 22.0884 19.8321C22.124 19.8621 22.1596 19.892 22.1963 19.9229C22.2875 20.0088 22.3743 20.0954 22.4603 20.1864C22.4973 20.2253 22.4973 20.2253 22.5351 20.265C22.584 20.3169 22.6321 20.3696 22.6794 20.423C22.7539 20.5062 22.7539 20.5062 22.8784 20.604C23.1052 20.6073 23.3254 20.4665 23.5298 20.3714C23.6868 20.3005 23.7793 20.2728 23.9551 20.2728C23.9544 20.2305 23.9536 20.1882 23.9529 20.1447C23.9505 19.9878 23.9487 19.831 23.9474 19.6741C23.9467 19.6062 23.9457 19.5383 23.9445 19.4704C23.9428 19.3728 23.942 19.2752 23.9414 19.1776C23.9407 19.1189 23.9399 19.0602 23.9392 18.9997C23.9551 18.8532 23.9551 18.8532 24.0094 18.7742C24.1308 18.6855 24.2181 18.6932 24.3671 18.6929ZM23.0656 22.9225C22.3984 23.5901 21.9854 24.403 21.9711 25.3624C21.973 26.4551 22.2755 27.3231 23.0501 28.1129C23.7416 28.7743 24.5958 29.1118 25.5468 29.1212C26.6014 29.0551 27.4564 28.6475 28.1831 27.8702C28.8872 27.0582 29.0593 26.1404 29.0201 25.0925C28.956 24.1222 28.3909 23.3186 27.6884 22.6963C26.3241 21.5822 24.3271 21.7353 23.0656 22.9225Z" fill="#FE6226"/>
<path d="M25.5 18.7113C25.6974 18.7078 25.8949 18.7052 26.0923 18.7035C26.1595 18.7028 26.2267 18.7018 26.2938 18.7006C26.3904 18.6988 26.4869 18.698 26.5835 18.6974C26.6707 18.6963 26.6707 18.6963 26.7596 18.6952C26.9044 18.7113 26.9044 18.7113 26.9937 18.774C27.0774 18.9036 27.0605 19.0253 27.0586 19.1776C27.0584 19.2089 27.0582 19.2402 27.058 19.2725C27.0572 19.3723 27.0555 19.4721 27.0537 19.5719C27.053 19.6396 27.0523 19.7073 27.0517 19.7751C27.0502 19.941 27.0478 20.1069 27.0449 20.2728C27.08 20.2792 27.1151 20.2856 27.1513 20.2921C27.353 20.3363 27.5382 20.4258 27.7265 20.5095C27.8952 20.5811 27.9958 20.6237 28.1684 20.5567C28.2481 20.4941 28.2481 20.4941 28.3202 20.4138C28.3618 20.3705 28.3618 20.3705 28.4042 20.3263C28.4326 20.2959 28.461 20.2656 28.4903 20.2343C28.8803 19.8202 28.8803 19.8202 29.1047 19.7049C29.3225 19.7187 29.4309 19.7683 29.5844 19.9225C29.6208 19.9586 29.6571 19.9946 29.6946 20.0317C29.733 20.0709 29.7713 20.1102 29.8108 20.1506C29.8508 20.1908 29.8908 20.231 29.9321 20.2725C30.0164 20.3576 30.1005 20.443 30.1843 20.5287C30.3127 20.6597 30.4423 20.7894 30.572 20.919C30.6539 21.0019 30.7356 21.0849 30.8173 21.1679C30.8561 21.2067 30.895 21.2454 30.9349 21.2853C30.9884 21.3405 30.9884 21.3405 31.043 21.3968C31.0744 21.4288 31.1059 21.4608 31.1384 21.4938C31.2296 21.6235 31.2467 21.724 31.2582 21.8816C31.2109 21.9825 31.2109 21.9825 31.1324 22.0767C31.1028 22.1127 31.0732 22.1487 31.0426 22.1858C30.9576 22.278 30.8719 22.3657 30.7819 22.4527C30.7434 22.4901 30.7434 22.4901 30.7042 22.5283C30.6528 22.5777 30.6007 22.6263 30.5478 22.6741C30.4655 22.7494 30.4655 22.7494 30.3687 22.8752C30.3599 22.9927 30.3599 22.9927 30.4156 23.1118C30.4373 23.169 30.4591 23.2262 30.4816 23.2852C30.5203 23.3798 30.5595 23.4741 30.5989 23.5684C30.6559 23.7078 30.6965 23.811 30.6965 23.9635C30.7383 23.9628 30.7801 23.962 30.8231 23.9613C30.9784 23.9589 31.1336 23.9571 31.2888 23.9557C31.3559 23.955 31.4231 23.9541 31.4903 23.9528C31.5868 23.9511 31.6834 23.9503 31.78 23.9497C31.8381 23.9489 31.8962 23.9482 31.956 23.9474C32.1009 23.9635 32.1009 23.9635 32.179 24.0184C32.2668 24.1411 32.2592 24.2293 32.2595 24.38C32.26 24.4363 32.2604 24.4927 32.2609 24.5508C32.2604 24.6422 32.2604 24.6422 32.26 24.7354C32.2601 24.7985 32.2602 24.8616 32.2604 24.9247C32.2606 25.0569 32.2603 25.1892 32.2597 25.3214C32.2589 25.4908 32.2593 25.6603 32.2602 25.8297C32.2607 25.96 32.2605 26.0903 32.2601 26.2206C32.26 26.3135 32.2604 26.4064 32.2609 26.4992C32.2604 26.5556 32.26 26.612 32.2595 26.6701C32.2594 26.7198 32.2593 26.7694 32.2592 26.8206C32.2413 26.9445 32.2413 26.9445 32.179 27.0317C32.0519 27.1209 31.9321 27.1023 31.78 27.1004C31.749 27.1002 31.718 27.1 31.6861 27.0998C31.5873 27.099 31.4886 27.0972 31.3899 27.0954C31.3229 27.0947 31.2559 27.094 31.1888 27.0934C31.0247 27.0919 30.8606 27.0894 30.6965 27.0865C30.6901 27.122 30.6838 27.1575 30.6773 27.1941C30.6336 27.398 30.545 27.5851 30.4622 27.7755C30.3914 27.9459 30.3492 28.0476 30.4156 28.2221C30.4775 28.3026 30.4775 28.3026 30.5569 28.3755C30.5998 28.4175 30.5998 28.4175 30.6435 28.4604C30.6885 28.5035 30.6885 28.5035 30.7345 28.5474C31.1442 28.9416 31.1442 28.9416 31.2582 29.1685C31.2446 29.3885 31.1956 29.4981 31.043 29.6533C31.0073 29.69 30.9717 29.7268 30.9349 29.7647C30.8961 29.8034 30.8573 29.8422 30.8173 29.8821C30.7576 29.9428 30.7576 29.9428 30.6967 30.0047C30.6125 30.09 30.528 30.1749 30.4433 30.2596C30.3136 30.3894 30.1853 30.5204 30.057 30.6515C29.975 30.7342 29.893 30.8169 29.8108 30.8994C29.7725 30.9387 29.7341 30.9779 29.6946 31.0183C29.6582 31.0544 29.6219 31.0904 29.5844 31.1275C29.5527 31.1593 29.521 31.1911 29.4884 31.2239C29.3601 31.3161 29.2606 31.3334 29.1047 31.3451C29.0049 31.2972 29.0049 31.2972 28.9116 31.2179C28.876 31.188 28.8404 31.158 28.8037 31.1272C28.7125 31.0412 28.6257 30.9546 28.5397 30.8636C28.515 30.8377 28.4903 30.8118 28.4649 30.7851C28.416 30.7331 28.3679 30.6804 28.3206 30.6271C28.2461 30.5438 28.2461 30.5438 28.1216 30.446C28.0054 30.4371 28.0054 30.4371 27.8876 30.4934C27.831 30.5154 27.7743 30.5374 27.716 30.5601C27.6225 30.5992 27.5292 30.6389 27.4359 30.6787C27.2979 30.7363 27.1958 30.7773 27.0449 30.7773C27.0456 30.8195 27.0464 30.8618 27.0471 30.9053C27.0495 31.0622 27.0513 31.2191 27.0526 31.376C27.0533 31.4438 27.0543 31.5117 27.0555 31.5796C27.0572 31.6772 27.058 31.7748 27.0586 31.8724C27.0593 31.9311 27.0601 31.9899 27.0608 32.0504C27.0449 32.1968 27.0449 32.1968 26.9937 32.2761C26.8587 32.3709 26.7462 32.3547 26.5835 32.3526C26.5525 32.3524 26.5216 32.3522 26.4896 32.352C26.3909 32.3512 26.2922 32.3494 26.1934 32.3476C26.1264 32.3469 26.0594 32.3463 25.9924 32.3457C25.8282 32.3441 25.6641 32.3417 25.5 32.3388C25.4989 31.92 25.4981 31.5013 25.4976 31.0826C25.4973 30.8882 25.497 30.6938 25.4965 30.4994C25.496 30.312 25.4957 30.1245 25.4956 29.9371C25.4955 29.8654 25.4953 29.7937 25.4951 29.722C25.4947 29.622 25.4947 29.5219 25.4947 29.4219C25.4946 29.3648 25.4945 29.3078 25.4944 29.249C25.5 29.1212 25.5 29.1212 25.5468 29.0738C25.6274 29.0637 25.708 29.0539 25.7887 29.0457C26.7898 28.943 27.6038 28.4976 28.2623 27.7264C28.9037 26.9067 29.0312 25.9698 28.9643 24.9572C28.8497 24.0164 28.2798 23.2143 27.5599 22.6386C26.9913 22.2278 26.3387 22.0353 25.6492 21.9878C25.5468 21.9762 25.5468 21.9762 25.5 21.9289C25.4956 21.8287 25.4945 21.7284 25.4947 21.6281C25.4947 21.5967 25.4947 21.5654 25.4947 21.533C25.4947 21.4288 25.4951 21.3246 25.4954 21.2204C25.4955 21.1483 25.4956 21.0763 25.4956 21.0042C25.4958 20.8141 25.4963 20.6241 25.4968 20.4341C25.4973 20.2403 25.4975 20.0465 25.4977 19.8527C25.4982 19.4722 25.499 19.0918 25.5 18.7113Z" fill="#FE6226"/>
<path d="M29.807 15.9669C29.8557 15.9896 29.8557 15.9896 29.9054 16.0129C30.8286 16.448 31.6377 17.0321 32.4062 17.7044C32.4692 17.7595 32.5326 17.8142 32.5959 17.8688C32.8272 18.0712 33.0281 18.2854 33.2245 18.522C33.263 18.5662 33.3015 18.6104 33.3411 18.656C34.19 19.636 35.4716 21.3749 35.4716 22.7333C35.5276 22.7323 35.5836 22.7313 35.6412 22.7303C35.8488 22.7268 36.0563 22.7247 36.2639 22.7229C36.3538 22.7219 36.4437 22.7206 36.5335 22.719C36.6626 22.7167 36.7917 22.7156 36.9208 22.7148C36.9812 22.7133 36.9812 22.7133 37.0427 22.7118C37.3208 22.7117 37.3208 22.7117 37.4392 22.821C37.5053 22.9687 37.5126 23.0447 37.4846 23.2065C37.4027 23.3479 37.3014 23.4709 37.1979 23.5968C37.1373 23.673 37.0767 23.7491 37.0161 23.8253C36.9694 23.8833 36.9694 23.8833 36.9217 23.9426C36.779 24.121 36.6403 24.3025 36.5015 24.484C36.4476 24.5542 36.3936 24.6243 36.3397 24.6944C36.3127 24.7294 36.2858 24.7644 36.258 24.8005C36.1693 24.9157 36.0806 25.0309 35.9918 25.1461C35.9621 25.1848 35.9323 25.2234 35.9016 25.2633C35.8445 25.3374 35.7875 25.4114 35.7304 25.4855C35.7047 25.5189 35.6789 25.5523 35.6524 25.5867C35.6299 25.616 35.6073 25.6453 35.5841 25.6754C35.5373 25.7368 35.4929 25.8001 35.4504 25.8646C35.3779 25.9509 35.3779 25.9509 35.2082 25.9923C35.0198 25.9795 34.9374 25.9078 34.8103 25.7705C34.5603 25.4632 34.3314 25.1386 34.1 24.8169C33.931 24.5828 33.7556 24.3541 33.5785 24.1262C33.2148 23.6555 33.2148 23.6555 33.0694 23.4549C33.0454 23.4219 33.0215 23.389 32.9968 23.3551C32.9264 23.2211 32.9008 23.1219 32.8968 22.9699C32.9672 22.8446 32.9672 22.8446 33.084 22.7333C33.2153 22.7088 33.3192 22.6991 33.4505 22.6998C33.4855 22.6991 33.5206 22.6984 33.5567 22.6977C33.6684 22.6956 33.7799 22.6952 33.8916 22.6948C33.9674 22.6937 34.0432 22.6925 34.1191 22.6912C34.3046 22.6883 34.4901 22.6867 34.6757 22.686C34.0387 20.701 32.9215 18.9751 31.2582 17.7176C31.232 17.6974 31.2057 17.6772 31.1787 17.6564C29.2459 16.1734 26.6794 15.5444 24.2824 15.8604C23.0896 16.0313 21.9744 16.3887 20.9121 16.9605C20.8843 16.9753 20.8564 16.99 20.8277 17.0052C18.6092 18.187 17.0851 20.3121 16.3243 22.686C16.3065 22.7452 16.2888 22.8044 16.2705 22.8654C16.1628 23.2229 16.1628 23.2229 16.0258 23.3868C15.864 23.4608 15.7888 23.4567 15.6221 23.3957C15.5079 23.2981 15.5079 23.2981 15.4348 23.1591C15.5356 21.2635 16.9694 19.3368 18.2437 18.0488C18.2792 18.0108 18.3147 17.9727 18.3512 17.9335C18.7179 17.5463 19.1252 17.2267 19.5545 16.9132C19.5837 16.8918 19.6129 16.8704 19.643 16.8483C20.7931 16.0147 22.1068 15.499 23.487 15.2098C23.5258 15.2014 23.5646 15.1929 23.6046 15.1843C25.6437 14.763 27.9361 15.0807 29.807 15.9669Z" fill="#FE6226"/>
<path d="M15.7918 25.0578C15.9802 25.0705 16.0626 25.1422 16.1897 25.2796C16.4397 25.5868 16.6686 25.9114 16.9 26.2331C17.069 26.4672 17.2445 26.6959 17.4215 26.9238C17.5009 27.0268 17.5802 27.1299 17.6594 27.233C17.7203 27.3121 17.7815 27.391 17.8427 27.4698C17.9747 27.6477 18.0503 27.7575 18.0857 27.9796C18.0536 28.1416 18.0339 28.2038 17.916 28.3168C17.7894 28.3369 17.6809 28.3454 17.5541 28.3456C17.519 28.3464 17.4838 28.3472 17.4476 28.348C17.3355 28.3503 17.2235 28.3513 17.1114 28.3522C17.0353 28.3536 16.9593 28.355 16.8832 28.3565C16.6969 28.36 16.5106 28.3623 16.3243 28.3641C17.1274 30.8666 18.7076 32.8799 21.0058 34.1368C21.0572 34.1651 21.1086 34.1933 21.1616 34.2224C23.3612 35.3832 26.007 35.5648 28.3652 34.8259C28.9672 34.63 29.5296 34.39 30.0879 34.0895C30.1157 34.0748 30.1436 34.06 30.1723 34.0448C32.3805 32.8685 33.9323 30.7372 34.6757 28.3641C34.694 28.3003 34.712 28.2364 34.7295 28.1724C34.7446 28.1176 34.7597 28.0627 34.7752 28.0062C34.7869 27.9593 34.7986 27.9124 34.8107 27.8641C34.8786 27.7146 34.9505 27.6738 35.0971 27.607C35.2783 27.607 35.3534 27.6333 35.4921 27.7519C35.6232 28.001 35.5243 28.2638 35.4467 28.5216C35.4165 28.6151 35.3858 28.7085 35.3545 28.8018C35.338 28.8514 35.3214 28.9011 35.3043 28.9523C34.7738 30.5066 33.9042 31.8429 32.7563 33.0012C32.7242 33.0358 32.6921 33.0705 32.659 33.1062C31.8799 33.9334 30.8743 34.5597 29.8538 35.0359C29.8236 35.0502 29.7934 35.0645 29.7623 35.0792C29.101 35.3909 28.4278 35.6224 27.7149 35.7811C27.6727 35.7905 27.6306 35.7999 27.5871 35.8096C26.8998 35.9552 26.2321 36.0016 25.5322 36C25.489 35.9999 25.4457 35.9999 25.4012 35.9998C23.285 35.9932 21.2284 35.3497 19.5077 34.0895C19.4814 34.0703 19.4551 34.0511 19.4281 34.0313C19.086 33.7788 18.7699 33.5051 18.4617 33.2115C18.34 33.0955 18.34 33.0955 18.2133 32.9962C18.1159 32.9168 18.0378 32.8399 17.957 32.7439C17.9291 32.7108 17.9012 32.6777 17.8725 32.6435C17.8405 32.6054 17.8085 32.5673 17.7755 32.528C17.7368 32.4836 17.6981 32.4391 17.6581 32.3933C16.8097 31.4131 15.5284 29.675 15.5284 28.3168C15.4444 28.3182 15.4444 28.3182 15.3588 28.3198C15.1512 28.3232 14.9437 28.3254 14.7361 28.3272C14.6462 28.3281 14.5563 28.3294 14.4665 28.331C14.3374 28.3333 14.2083 28.3344 14.0792 28.3352C14.0389 28.3362 13.9987 28.3372 13.9573 28.3382C13.6792 28.3383 13.6792 28.3383 13.5608 28.2291C13.4947 28.0813 13.4874 28.0054 13.5154 27.8436C13.5973 27.7021 13.6986 27.5791 13.8021 27.4532C13.8627 27.3771 13.9233 27.3009 13.9839 27.2248C14.0306 27.1667 14.0306 27.1667 14.0783 27.1075C14.221 26.9291 14.3597 26.7475 14.4985 26.566C14.5524 26.4959 14.6064 26.4258 14.6603 26.3557C14.6873 26.3206 14.7142 26.2856 14.742 26.2495C14.8307 26.1343 14.9194 26.0191 15.0082 25.9039C15.0379 25.8653 15.0677 25.8266 15.0984 25.7867C15.1555 25.7127 15.2125 25.6386 15.2696 25.5646C15.2953 25.5311 15.3211 25.4977 15.3476 25.4633C15.3814 25.4194 15.3814 25.4194 15.4159 25.3746C15.4627 25.3132 15.5071 25.2499 15.5496 25.1855C15.6221 25.0992 15.6221 25.0992 15.7918 25.0578Z" fill="#FE6226"/>
<path d="M25.5 15.0678C25.5013 15.1772 25.5022 15.2867 25.5029 15.3961C25.5035 15.457 25.504 15.518 25.5046 15.5807C25.5 15.7303 25.5 15.7303 25.4532 15.7776C25.3663 15.7822 25.2793 15.7864 25.1923 15.7889C23.6871 15.8349 22.2373 16.2472 20.9121 16.9605C20.8843 16.9753 20.8564 16.99 20.8277 17.0052C18.6092 18.187 17.0851 20.3121 16.3243 22.686C16.3065 22.7452 16.2888 22.8044 16.2705 22.8654C16.1628 23.2229 16.1628 23.2229 16.0258 23.3868C15.864 23.4608 15.7888 23.4567 15.6221 23.3957C15.5079 23.2981 15.5079 23.2981 15.4348 23.1591C15.5356 21.2635 16.9694 19.3368 18.2437 18.0488C18.2792 18.0108 18.3147 17.9727 18.3512 17.9335C18.7179 17.5463 19.1252 17.2267 19.5545 16.9132C19.5837 16.8918 19.6129 16.8704 19.643 16.8483C21.3426 15.6164 23.4185 15.0097 25.5 15.0678Z" fill="#FE6226"/>
<path d="M35.3779 27.6543C35.4921 27.7519 35.4921 27.7519 35.5652 27.8909C35.5485 28.2112 35.4558 28.4993 35.3545 28.8018C35.338 28.8514 35.3214 28.9011 35.3043 28.9523C34.7738 30.5066 33.9042 31.8429 32.7563 33.0012C32.7242 33.0358 32.6921 33.0705 32.659 33.1062C31.8799 33.9334 30.8743 34.5597 29.8538 35.0359C29.8236 35.0502 29.7934 35.0645 29.7623 35.0792C28.932 35.4705 28.0847 35.7157 27.1853 35.8876C27.1522 35.8939 27.1191 35.9003 27.085 35.9068C26.5596 36.0031 26.0317 35.9923 25.5 35.9822C25.4987 35.8728 25.4978 35.7634 25.4971 35.6539C25.4965 35.593 25.496 35.5321 25.4954 35.4693C25.5 35.3198 25.5 35.3198 25.5468 35.2724C25.6337 35.2679 25.7207 35.2637 25.8077 35.2611C27.3129 35.2151 28.7627 34.8028 30.0879 34.0895C30.1157 34.0748 30.1436 34.06 30.1723 34.0448C32.3805 32.8685 33.9323 30.7372 34.6757 28.3641C34.694 28.3003 34.712 28.2364 34.7295 28.1724C34.7446 28.1176 34.7597 28.0627 34.7752 28.0062C34.7869 27.9593 34.7986 27.9124 34.8107 27.8641C34.9257 27.6109 35.1316 27.5695 35.3779 27.6543Z" fill="#FE6226"/>
</svg>
