<svg version="1.2" xmlns="http://www.w3.org/2000/svg" viewBox="0 0 800 800" width="800" height="800">
	<style>
		.s0 { fill: #292d32 } 
		.s1 { fill: none;stroke: #292d32;stroke-miterlimit:100;stroke-width: 20 } 
	</style>
	<path class="s0" d="m485 747.33c-11 0-21.33-7.33-24.33-18.66-3.34-13.34 4.33-27 17.66-30.67 135.34-35.67 229.67-158.33 229.67-298.33 0-170-138.33-308.34-308.33-308.34-144.34 0-239 84.34-283.34 135.34h98c13.67 0 25 11.33 25 25 0 13.66-10.66 25.33-24.66 25.33h-147.67q-3.5 0-7-1-4.5-1.5-8-4c-3-2-5.33-4.67-7-7.67-1.67-3.33-3-6.66-3.33-10.33 0-1 0-1.67 0-2.67v-151.33c0-13.67 11.33-25 25-25 13.66 0 25 11.33 25 25v79.67c54.33-58.34 156.66-138 308.33-138 197.67 0 358.33 160.66 358.33 358.33 0 162.67-109.66 305.33-267 346.67-2 0.33-4.33 0.66-6.33 0.66z"/>
	<path class="s0" d="m376.33 757.67c-0.66 0-1.66 0-2.33-0.34-35.67-2.33-70.67-10.33-104-23.33-9.67-3.67-16-13.33-16-23.67 0-3 0.67-6 1.67-8.66 5-12.67 19.66-19.34 32.33-14.34 28.67 11.34 59 18 89.67 20.34h0.33c13.33 0.66 23.33 12 23.33 25.33 0 0.33 0 1 0 1.33-1 13-12 23.34-25 23.34zm-183.66-71.67c-5.67 0-11-1.67-15.67-5.33-28-22.34-52.33-48.67-72.67-78.34-3-4.33-4.66-9-4.66-14 0-8.33 4-16 11-20.66 11-7.67 27.33-4.67 34.66 6.33 17.67 25.67 38.67 48.33 63 67.33 5.67 4.67 9.34 11.67 9.34 19.34 0 5.66-1.67 11.33-5.34 16-4.66 6-12 9.33-19.66 9.33zm-111.34-162.67c-11 0-20.66-7-23.66-17.33-10.67-34.33-16-70-16-106 0-13.67 11.33-25 25-25 13.66 0 25 11.33 25 25 0 31 4.66 61.67 13.66 91 0.67 2.33 1 5 1 7.67 0 11-7 20.33-17.33 23.66-2.67 0.67-5 1-7.67 1z"/>
	<path id="Shape 1" fill-rule="evenodd" class="s1" d="m399.5 519.81c-66.53 0-120.31-53.78-120.31-120.31 0-66.53 53.78-120.31 120.31-120.31 66.53 0 120.31 53.78 120.31 120.31 0 66.53-53.78 120.31-120.31 120.31z"/>
</svg>