
<svg width="50" height="50" viewBox="0 0 50 50" fill="none" xmlns="http://www.w3.org/2000/svg">
<rect opacity="0.08" width="50" height="50" rx="25" fill="#FE6226"/>
<path d="M26.0855 14.5632C26.4364 14.8678 26.6857 15.2004 26.8861 15.619C26.9082 15.6639 26.9304 15.7088 26.9532 15.755C27.0232 15.8974 27.0924 16.0403 27.1615 16.1832C27.2072 16.2763 27.253 16.3695 27.2988 16.4626C27.5525 16.9794 27.8011 17.4987 28.0471 18.0192C28.0862 18.1019 28.1259 18.1843 28.1661 18.2664C28.2228 18.3881 28.2228 18.3881 28.2718 18.5199C28.3649 18.7593 28.3649 18.7593 28.5612 18.9096C28.6962 18.941 28.8265 18.9567 28.9646 18.9688C29.0705 18.9819 29.1764 18.995 29.2823 19.0081C29.3383 19.0142 29.3943 19.0204 29.452 19.0267C29.7507 19.0609 30.0476 19.1069 30.345 19.1511C30.4687 19.1689 30.5924 19.1868 30.7161 19.2045C30.7469 19.209 30.7776 19.2134 30.8094 19.218C30.9671 19.2407 31.1248 19.2631 31.2826 19.2853C31.4088 19.303 31.5349 19.321 31.6609 19.3394C31.7776 19.3563 31.8944 19.3729 32.0113 19.389C32.5678 19.471 33.0446 19.5942 33.4624 19.9875C33.4888 20.0121 33.5152 20.0367 33.5424 20.0621C33.8848 20.4203 34.0122 20.8914 34.0298 21.3773C33.9991 22.2046 33.5089 22.6967 32.9536 23.242C32.8949 23.3005 32.8363 23.359 32.7777 23.4176C32.5311 23.663 32.2836 23.9049 32.02 24.1319C31.79 24.334 31.568 24.5444 31.3481 24.7575C31.2897 24.8136 31.2306 24.8691 31.1711 24.924C31.0839 25.0044 30.9989 25.0868 30.9141 25.1697C30.874 25.2055 30.874 25.2055 30.8332 25.242C30.7163 25.36 30.6595 25.4421 30.6456 25.6106C30.6557 25.7614 30.6769 25.9067 30.7023 26.0556C30.7112 26.1121 30.7201 26.1686 30.7293 26.2268C30.7552 26.3846 30.7826 26.5419 30.8112 26.6992C30.8302 26.8041 30.8487 26.9091 30.8672 27.0142C30.9197 27.3125 30.9725 27.6106 31.0264 27.9087C31.4294 30.1434 31.4294 30.1434 31.006 30.8262C30.7094 31.2403 30.3171 31.5515 29.8134 31.6533C29.673 31.6685 29.5336 31.6744 29.3924 31.6768C29.3416 31.6781 29.3416 31.6781 29.2899 31.6795C28.8189 31.674 28.4125 31.4538 28.0123 31.224C27.4755 30.9226 26.9295 30.6406 26.3819 30.3595C26.3485 30.3423 26.3151 30.3251 26.2807 30.3074C26.2145 30.2734 26.1482 30.2395 26.0819 30.2056C25.9173 30.1213 25.7547 30.0347 25.5941 29.9429C25.5469 29.9162 25.5469 29.9162 25.4987 29.8891C25.4394 29.8555 25.3805 29.8213 25.322 29.7863C25.1895 29.7117 25.1004 29.6773 24.9475 29.6818C24.7871 29.731 24.6481 29.7959 24.4993 29.874C24.4558 29.8967 24.4558 29.8967 24.4114 29.9198C24.3172 29.969 24.2233 30.0188 24.1295 30.0686C24.064 30.103 23.9986 30.1373 23.9332 30.1716C23.4326 30.4348 22.9363 30.7056 22.4414 30.9793C22.1407 31.1455 21.8399 31.3106 21.5331 31.4651C21.4889 31.4875 21.4448 31.5099 21.3993 31.5329C20.9467 31.7308 20.3603 31.7325 19.8928 31.5798C19.3994 31.3625 19.0154 30.9764 18.7993 30.4802C18.7295 30.2551 18.7126 30.0416 18.7133 29.8073C18.7134 29.7703 18.7135 29.7333 18.7136 29.6952C18.7201 29.287 18.7861 28.8941 18.8592 28.4935C18.8729 28.4153 18.8866 28.337 18.9001 28.2587C18.9355 28.0555 18.9717 27.8525 19.0081 27.6494C19.0666 27.3227 19.1238 26.9957 19.181 26.6687C19.2009 26.5553 19.2213 26.442 19.2416 26.3287C19.2539 26.2591 19.2662 26.1896 19.2785 26.1201C19.2947 26.0296 19.2947 26.0296 19.3113 25.9373C19.3611 25.6573 19.3611 25.6573 19.2765 25.3987C19.2494 25.3719 19.2222 25.3451 19.1943 25.3175C19.1636 25.2865 19.133 25.2556 19.1014 25.2237C19.0678 25.1912 19.0342 25.1587 18.9996 25.1253C18.9652 25.0909 18.9307 25.0566 18.8953 25.0213C18.785 24.9116 18.6737 24.803 18.5625 24.6944C18.4889 24.6215 18.4155 24.5485 18.3421 24.4754C18.0525 24.1885 17.7625 23.9052 17.455 23.6375C17.269 23.4742 17.093 23.3005 16.917 23.1265C16.8718 23.0821 16.8264 23.038 16.7807 22.9942C16.2936 22.5276 16.0067 22.0375 15.9515 21.3604C15.9684 20.8567 16.1434 20.3909 16.4858 20.0224C17.0896 19.455 17.8775 19.4103 18.6622 19.2977C18.7395 19.2864 18.8168 19.2751 18.8941 19.2638C19.0953 19.2344 19.2966 19.2053 19.4979 19.1762C19.8216 19.1294 20.1452 19.0822 20.4689 19.035C20.5815 19.0186 20.694 19.0024 20.8066 18.9862C20.8754 18.9762 20.9442 18.9662 21.013 18.9562C21.073 18.9475 21.1329 18.9388 21.1947 18.9299C21.3668 18.9052 21.3668 18.9052 21.5331 18.8585C21.6003 18.7531 21.6541 18.6545 21.7072 18.5421C21.7232 18.5096 21.7392 18.4771 21.7557 18.4436C21.8079 18.3372 21.8591 18.2304 21.9103 18.1235C21.9461 18.0499 21.982 17.9763 22.018 17.9027C22.1224 17.6886 22.2256 17.474 22.3284 17.2592C22.3675 17.1775 22.3675 17.1775 22.4074 17.0941C22.4729 16.9572 22.5381 16.8201 22.6032 16.6829C22.6333 16.6196 22.6333 16.6196 22.664 16.555C22.6837 16.5134 22.7035 16.4717 22.7238 16.4288C22.7433 16.3878 22.7627 16.3469 22.7828 16.3046C22.8246 16.2162 22.8662 16.1277 22.9076 16.0391C23.5616 14.6443 23.5616 14.6443 24.3208 14.3414C24.91 14.157 25.5692 14.1985 26.0855 14.5632ZM24.9481 15.895C24.6901 16.1104 24.5715 16.3893 24.4277 16.6888C24.4009 16.7437 24.3741 16.7985 24.3465 16.855C24.1828 17.1903 24.023 17.5275 23.8634 17.8648C23.7732 18.0551 23.6825 18.2452 23.5915 18.4352C23.5756 18.4683 23.5598 18.5013 23.5435 18.5354C23.4339 18.7638 23.3235 18.9917 23.2122 19.2191C23.1749 19.2956 23.1378 19.3723 23.101 19.449C23.049 19.5574 22.996 19.6653 22.9429 19.7732C22.9276 19.8056 22.9123 19.838 22.8965 19.8714C22.7677 20.1292 22.6201 20.3034 22.3451 20.4131C22.1559 20.467 21.9694 20.4959 21.7749 20.5224C21.7343 20.5282 21.6937 20.5339 21.6519 20.5399C21.5642 20.5523 21.4764 20.5646 21.3886 20.5768C21.2495 20.5961 21.1105 20.6158 20.9715 20.6356C20.5763 20.6918 20.1811 20.7474 19.7858 20.8026C19.5437 20.8365 19.3016 20.8708 19.0596 20.9054C18.9676 20.9185 18.8755 20.9314 18.7835 20.9441C18.6546 20.9619 18.5257 20.9802 18.3969 20.9987C18.3592 21.0038 18.3214 21.0088 18.2825 21.0141C18.0508 21.048 17.8617 21.1088 17.6502 21.2105C17.6343 21.3795 17.6307 21.4651 17.7302 21.6059C17.767 21.6418 17.8038 21.6776 17.8417 21.7145C17.9025 21.7746 17.9025 21.7746 17.9645 21.8359C18.0075 21.8769 18.0504 21.9179 18.0946 21.9602C18.1361 22.001 18.1776 22.0419 18.2204 22.084C18.3984 22.2581 18.5788 22.4279 18.7668 22.5912C18.9528 22.7541 19.1275 22.9259 19.3007 23.1024C19.3315 23.1335 19.3623 23.1646 19.394 23.1967C19.5239 23.328 19.6534 23.4597 19.7831 23.5913C19.8785 23.6881 19.9741 23.7848 20.0697 23.8815C20.1126 23.9252 20.1126 23.9252 20.1564 23.9698C20.3312 24.1465 20.5116 24.3125 20.7013 24.473C20.8847 24.6432 21.0529 24.8543 21.0721 25.1124C21.0724 25.3687 21.0466 25.61 21.0009 25.8618C20.994 25.9012 20.9872 25.9406 20.9801 25.9811C20.9653 26.0659 20.9504 26.1506 20.9353 26.2352C20.9114 26.3695 20.8879 26.5038 20.8646 26.6381C20.8149 26.9232 20.7647 27.2082 20.7144 27.4932C20.6561 27.8238 20.5981 28.1545 20.5405 28.4852C20.5174 28.6171 20.494 28.7489 20.4705 28.8808C20.4563 28.9621 20.4421 29.0435 20.428 29.1248C20.4214 29.1611 20.4148 29.1973 20.4081 29.2347C20.3687 29.464 20.3499 29.68 20.3635 29.9128C20.3944 29.9439 20.4253 29.9749 20.4571 30.0069C20.7272 29.9951 20.9256 29.9038 21.159 29.7796C21.1942 29.7614 21.2294 29.7431 21.2656 29.7243C21.3794 29.6651 21.4928 29.6052 21.6062 29.5453C21.6849 29.5042 21.7636 29.463 21.8424 29.4219C22.3334 29.165 22.8209 28.9021 23.3055 28.6332C23.5811 28.4807 23.8594 28.3336 24.1382 28.1871C24.2076 28.1505 24.2076 28.1505 24.2783 28.1132C24.321 28.0908 24.3637 28.0684 24.4078 28.0454C24.4456 28.0256 24.4834 28.0058 24.5223 27.9854C24.7617 27.8681 24.9679 27.8484 25.2288 27.8901C25.3475 27.9418 25.459 27.9951 25.5729 28.0557C25.6055 28.0725 25.638 28.0894 25.6716 28.1067C25.7398 28.1421 25.808 28.1776 25.876 28.2134C25.9725 28.2639 26.0692 28.3137 26.1662 28.3633C26.355 28.4597 26.5434 28.557 26.7317 28.6545C26.7816 28.6803 26.7816 28.6803 26.8325 28.7067C27.253 28.9243 27.6711 29.1454 28.0854 29.3748C28.3801 29.5377 28.675 29.6997 28.9743 29.854C29.0041 29.8698 29.0339 29.8856 29.0647 29.9019C29.226 29.9838 29.3514 30.0342 29.5327 30.0069C29.6448 29.9151 29.6448 29.9151 29.6362 29.7445C29.6307 29.5341 29.5993 29.3316 29.5619 29.1248C29.555 29.0855 29.5482 29.0462 29.5411 29.0058C29.5263 28.9211 29.5114 28.8364 29.4963 28.7517C29.4725 28.6175 29.449 28.4832 29.4256 28.3488C29.3675 28.0152 29.3087 27.6818 29.2499 27.3483C29.2001 27.0661 29.1506 26.7839 29.1015 26.5016C29.0785 26.3698 29.055 26.2381 29.0316 26.1063C29.0173 26.0248 29.0032 25.9433 28.989 25.8618C28.9791 25.8076 28.9791 25.8076 28.9691 25.7523C28.8996 25.3464 28.8688 24.9953 29.1117 24.6444C29.2632 24.4658 29.4387 24.3149 29.6153 24.1622C29.8064 23.9944 29.9861 23.8175 30.1643 23.636C30.212 23.5877 30.212 23.5877 30.2607 23.5385C30.3612 23.4369 30.4616 23.3351 30.5619 23.2332C30.6943 23.0988 30.8269 22.9646 30.9596 22.8304C30.9892 22.8002 31.0188 22.77 31.0494 22.7389C31.2259 22.5605 31.4077 22.3913 31.5976 22.2273C31.7482 22.0959 31.8924 21.9585 32.0355 21.8191C32.0651 21.7915 32.0946 21.764 32.1251 21.7356C32.3009 21.5656 32.3009 21.5656 32.3586 21.3312C32.3524 21.2914 32.3461 21.2515 32.3396 21.2105C32.0925 21.0919 31.8699 21.0358 31.5995 20.9995C31.5595 20.9937 31.5195 20.988 31.4783 20.982C31.392 20.9697 31.3057 20.9575 31.2193 20.9455C31.0823 20.9265 30.9455 20.907 30.8086 20.8873C30.5179 20.8456 30.2271 20.8046 29.9362 20.7636C29.5993 20.7162 29.2625 20.6684 28.9258 20.62C28.7915 20.6008 28.6571 20.5821 28.5227 20.5635C28.4396 20.5516 28.3565 20.5397 28.2734 20.5278C28.2365 20.5228 28.1996 20.5178 28.1616 20.5127C27.852 20.4674 27.5347 20.4167 27.3006 20.1983C27.1525 19.9913 27.0445 19.7587 26.9331 19.5305C26.9087 19.4813 26.8843 19.432 26.8591 19.3813C26.7812 19.2239 26.7038 19.0662 26.6264 18.9085C26.5755 18.8056 26.5246 18.7028 26.4737 18.5999C26.1832 18.0125 25.8986 17.4225 25.6186 16.8301C25.4171 16.3051 25.4171 16.3051 25.056 15.9268C25.0204 15.9163 24.9848 15.9058 24.9481 15.895Z" fill="#FE6226"/>
<path d="M35.387 26.1109C35.4613 26.136 35.5356 26.1615 35.6097 26.1872C35.7228 26.2262 35.8363 26.2634 35.9499 26.3005C36.0231 26.3252 36.0962 26.35 36.1693 26.3749C36.2027 26.3858 36.2361 26.3967 36.2705 26.4079C36.5395 26.5031 36.7857 26.6492 36.9322 26.9032C37.0299 27.138 37.0166 27.4416 36.9268 27.6764C36.7975 27.8968 36.6675 28.0327 36.4172 28.1021C35.9895 28.1769 35.6053 28.0125 35.205 27.8784C35.1306 27.8543 35.0563 27.8304 34.9819 27.8065C34.9103 27.7832 34.8387 27.7599 34.7671 27.7365C34.7342 27.7258 34.7013 27.715 34.6675 27.704C34.326 27.5892 34.0267 27.466 33.831 27.1458C33.7327 26.9011 33.7612 26.6125 33.8425 26.3672C34.246 25.7991 34.8005 25.9187 35.387 26.1109Z" fill="#FE6226"/>
<path d="M15.8491 26.0409C16.0429 26.2211 16.1852 26.3704 16.2111 26.643C16.2186 26.9293 16.2087 27.1014 16.0129 27.3256C15.9875 27.3563 15.962 27.3869 15.9359 27.4185C15.7908 27.544 15.6345 27.5956 15.4555 27.654C15.4195 27.6662 15.3835 27.6783 15.3464 27.6908C15.2703 27.7163 15.1941 27.7416 15.1178 27.7666C15.0023 27.8045 14.8873 27.8435 14.7722 27.8827C13.8728 28.1844 13.8728 28.1844 13.4954 28.0724C13.2774 27.9434 13.114 27.7991 13.0188 27.5608C12.9878 27.3002 12.9835 27.0701 13.0978 26.8317C13.3098 26.6012 13.5171 26.483 13.8114 26.3841C13.8471 26.3719 13.8828 26.3596 13.9196 26.347C13.9951 26.3213 14.0706 26.2958 14.1462 26.2706C14.2603 26.2324 14.3739 26.1927 14.4874 26.153C15.4219 25.8338 15.4219 25.8338 15.8491 26.0409Z" fill="#FE6226"/>
<path d="M25.2756 32.7352C25.484 32.8362 25.6175 32.964 25.7434 33.1585C25.8293 33.4072 25.8514 33.6262 25.8511 33.8858C25.8513 33.923 25.8515 33.9601 25.8517 33.9984C25.8519 34.0766 25.852 34.1548 25.8518 34.233C25.8516 34.3515 25.8527 34.47 25.8539 34.5885C25.8574 35.4529 25.8574 35.4529 25.6146 35.7531C25.5867 35.7739 25.5588 35.7948 25.53 35.8163C25.4879 35.849 25.4879 35.849 25.445 35.8824C25.2242 36.0323 24.9719 36.0053 24.7142 35.9809C24.5059 35.8799 24.3724 35.7521 24.2464 35.5576C24.1605 35.3089 24.1385 35.0899 24.1388 34.8303C24.1386 34.7931 24.1384 34.756 24.1382 34.7177C24.1379 34.6395 24.1379 34.5613 24.1381 34.4831C24.1382 34.3646 24.1371 34.2461 24.136 34.1276C24.1324 33.2632 24.1324 33.2632 24.3752 32.963C24.4032 32.9422 24.4311 32.9213 24.4599 32.8998C24.4879 32.878 24.5159 32.8562 24.5448 32.8337C24.7657 32.6838 25.018 32.7108 25.2756 32.7352Z" fill="#FE6226"/>
<path d="M18.0245 13.0256C18.2411 13.1429 18.3729 13.2812 18.5186 13.4784C18.5474 13.5171 18.5474 13.5171 18.5768 13.5566C18.6428 13.6458 18.7079 13.7355 18.773 13.8253C18.7991 13.861 18.8252 13.8967 18.8521 13.9335C18.9351 14.0472 19.0179 14.1611 19.1004 14.2751C19.1268 14.3115 19.1532 14.3479 19.1804 14.3854C19.2052 14.4199 19.2299 14.4544 19.2554 14.4899C19.2774 14.5205 19.2994 14.5511 19.3221 14.5826C19.5032 14.8568 19.5085 15.1004 19.4747 15.4246C19.4157 15.6143 19.3113 15.7323 19.1648 15.8656C18.9046 15.9916 18.6313 16.0292 18.349 15.9538C18.0757 15.8298 17.9141 15.5683 17.7438 15.3306C17.7208 15.2985 17.6978 15.2665 17.6742 15.2335C17.5301 15.0316 17.3881 14.8284 17.2474 14.6241C17.1833 14.5321 17.1175 14.4415 17.0516 14.3508C16.8823 14.1058 16.864 13.8812 16.9017 13.5901C16.981 13.3885 17.1014 13.2482 17.2526 13.0962C17.5027 12.9884 17.7568 12.9812 18.0245 13.0256Z" fill="#FE6226"/>
<path d="M32.5735 13.0256C32.8294 13.1359 32.9844 13.3334 33.0881 13.5901C33.1457 13.8802 33.0959 14.1098 32.9419 14.3583C32.7555 14.625 32.5603 14.8847 32.3631 15.1433C32.2978 15.2299 32.2341 15.3173 32.171 15.4055C32.117 15.4805 32.117 15.4805 32.0619 15.5569C32.0306 15.6009 31.9993 15.6449 31.967 15.6902C31.8083 15.8749 31.6502 15.9578 31.4098 15.9832C31.1184 16.0041 30.9321 15.926 30.711 15.7333C30.5135 15.5007 30.4851 15.3129 30.4927 15.0101C30.5283 14.7724 30.6381 14.6146 30.7807 14.4253C30.8554 14.3257 30.9278 14.2244 31.0003 14.1232C31.8428 12.9542 31.8428 12.9542 32.5735 13.0256Z" fill="#FE6226"/>
</svg>
