
<svg width="50" height="50" viewBox="0 0 50 50" fill="none" xmlns="http://www.w3.org/2000/svg">
<rect opacity="0.08" width="50" height="50" rx="25" fill="#FE6226"/>
<path d="M36.7739 18.1269C36.9002 18.2558 36.9752 18.3603 37 18.5429C36.9958 19.0203 36.9413 19.4945 36.8935 19.9689C36.8838 20.067 36.874 20.1652 36.8643 20.2634C36.8438 20.4684 36.8232 20.6733 36.8024 20.8782C36.7759 21.1403 36.7502 21.4024 36.7246 21.6645C36.7047 21.867 36.6843 22.0694 36.6638 22.2718C36.6541 22.3684 36.6446 22.465 36.6352 22.5617C36.6221 22.6969 36.6083 22.8319 36.5942 22.967C36.5906 23.0065 36.5869 23.046 36.5831 23.0868C36.5493 23.4011 36.4887 23.6682 36.2538 23.8907C36.0325 23.9953 35.8721 24.0257 35.6334 23.9707C35.5389 23.905 35.5389 23.905 35.4466 23.818C35.4121 23.7856 35.3775 23.7532 35.3419 23.7198C35.1524 23.5343 34.9659 23.346 34.7812 23.1555C34.7424 23.1156 34.7035 23.0758 34.6635 23.0347C34.569 22.9376 34.4745 22.8404 34.3802 22.7431C34.1764 22.8258 34.0405 22.974 33.8896 23.1304C33.8608 23.1599 33.832 23.1893 33.8023 23.2196C33.7059 23.3184 33.6097 23.4175 33.5136 23.5166C33.4445 23.5874 33.3754 23.6583 33.3063 23.7291C33.1575 23.8816 33.0088 24.0343 32.8602 24.1871C32.6251 24.4288 32.3897 24.67 32.1542 24.9111C31.4845 25.5969 30.8154 26.2833 30.1467 26.9701C29.7775 27.3494 29.4078 27.7283 29.0378 28.1068C28.8037 28.3464 28.5699 28.5865 28.3366 28.8268C28.1912 28.9764 28.0454 29.1255 27.8995 29.2745C27.8319 29.3436 27.7646 29.4129 27.6974 29.4824C27.6056 29.5773 27.5131 29.6716 27.4205 29.7658C27.3942 29.7933 27.3679 29.8209 27.3407 29.8493C27.066 30.1258 26.8001 30.2327 26.4127 30.2332C26.3553 30.2342 26.298 30.2352 26.239 30.2362C25.8113 30.176 25.5415 29.9171 25.2485 29.612C25.2098 29.5726 25.1711 29.5332 25.1313 29.4925C25.0044 29.3629 24.8783 29.2326 24.7521 29.1023C24.6639 29.012 24.5757 28.9217 24.4875 28.8314C24.2559 28.5944 24.025 28.3568 23.7942 28.119C23.5584 27.8762 23.3219 27.6341 23.0855 27.3918C22.6222 26.9169 22.1596 26.4414 21.6973 25.9655C21.3519 26.2538 21.0423 26.5773 20.7285 26.9002C20.6664 26.964 20.6043 27.0277 20.5422 27.0914C20.4089 27.228 20.2757 27.3648 20.1425 27.5016C19.9318 27.718 19.7208 27.9341 19.5098 28.1502C19.4374 28.2244 19.365 28.2985 19.2926 28.3726C19.2382 28.4283 19.2382 28.4283 19.1827 28.4851C18.6918 28.9878 18.2011 29.4908 17.711 29.9943C17.3797 30.3345 17.0482 30.6744 16.7162 31.0139C16.5407 31.1933 16.3655 31.3729 16.1907 31.553C16.0263 31.7223 15.8615 31.8911 15.6963 32.0595C15.6359 32.1213 15.5757 32.1832 15.5156 32.2454C14.8524 32.9312 14.8524 32.9312 14.4003 33C13.9936 32.9962 13.6956 32.9753 13.3905 32.6875C13.1062 32.3742 13.0094 32.0668 13 31.645C13.064 31.245 13.2614 30.9545 13.5392 30.6762C13.5862 30.6275 13.5862 30.6275 13.6342 30.5779C13.7385 30.4704 13.8437 30.3637 13.9489 30.2571C14.0242 30.1798 14.0995 30.1025 14.1747 30.0251C14.3786 29.8157 14.5832 29.6071 14.7881 29.3987C14.9593 29.2244 15.13 29.0497 15.3008 28.875C15.7037 28.4629 16.1073 28.0514 16.5113 27.6403C16.9277 27.2166 17.343 26.792 17.7578 26.3668C18.1145 26.0013 18.4717 25.6364 18.8294 25.2719C19.0429 25.0545 19.2561 24.8368 19.4688 24.6186C19.6688 24.4134 19.8696 24.209 20.0709 24.0051C20.1445 23.9303 20.2179 23.8553 20.291 23.7799C21.0872 22.96 21.0872 22.96 21.6503 22.9253C22.2969 22.9986 22.6401 23.3899 23.0814 23.8426C23.1171 23.879 23.1529 23.9155 23.1897 23.9531C23.3065 24.0722 23.423 24.1916 23.5396 24.3109C23.6211 24.3941 23.7025 24.4773 23.784 24.5605C23.9974 24.7784 24.2107 24.9965 24.4239 25.2146C24.6419 25.4376 24.86 25.6604 25.0782 25.8832C25.5054 26.3197 25.9324 26.7563 26.3594 27.193C26.5487 27.1128 26.6685 26.9926 26.8124 26.8454C26.8371 26.8203 26.8619 26.7951 26.8874 26.7692C26.9701 26.6849 27.0525 26.6003 27.1349 26.5157C27.1942 26.4552 27.2535 26.3947 27.3128 26.3342C27.4737 26.17 27.6344 26.0055 27.795 25.8409C27.9629 25.669 28.131 25.4974 28.2992 25.3257C28.6175 25.0006 28.9356 24.6752 29.2536 24.3497C29.6156 23.9791 29.978 23.6089 30.3403 23.2386C31.0857 22.477 31.8307 21.7151 32.5755 20.9529C32.5281 20.896 32.4807 20.8391 32.4332 20.7823C32.3936 20.7348 32.3936 20.7348 32.3531 20.6864C32.2472 20.5627 32.134 20.4483 32.0186 20.3339C31.9725 20.2877 31.9264 20.2416 31.879 20.194C31.807 20.1223 31.7351 20.0506 31.6628 19.9793C31.592 19.9092 31.5218 19.8386 31.4515 19.7681C31.4098 19.7267 31.3682 19.6853 31.3252 19.6427C31.1987 19.4932 31.1269 19.3582 31.1159 19.1595C31.1454 18.9185 31.1958 18.7751 31.3724 18.6C31.5587 18.4755 31.7641 18.466 31.9803 18.4439C32.0212 18.4394 32.0622 18.4349 32.1044 18.4302C32.2398 18.4154 32.3754 18.4012 32.5109 18.3871C32.6056 18.3769 32.7003 18.3667 32.795 18.3565C32.9937 18.3352 33.1926 18.3142 33.3914 18.2933C33.6445 18.2668 33.8975 18.2396 34.1505 18.2122C34.3463 18.191 34.5422 18.1702 34.7381 18.1495C34.8313 18.1396 34.9244 18.1296 35.0176 18.1195C36.504 17.9589 36.504 17.9589 36.7739 18.1269Z" fill="#FE6226"/>
</svg>
